<?xml version="1.0" standalone="no"?><!DOCTYPE svg PUBLIC "-//W3C//DTD SVG 1.1//EN" "http://www.w3.org/Graphics/SVG/1.1/DTD/svg11.dtd"><svg t="1569574046772" class="icon" viewBox="0 0 1024 1024" version="1.1" xmlns="http://www.w3.org/2000/svg" p-id="1999" width="16" height="16" xmlns:xlink="http://www.w3.org/1999/xlink"><defs><style type="text/css"></style></defs><path d="M578.382 512.5L861.58 795.696c18.745 18.745 18.745 49.137 0 67.883-18.746 18.745-49.138 18.745-67.883 0L510.5 580.382 227.304 863.58c-18.745 18.745-49.137 18.745-67.883 0-18.745-18.746-18.745-49.138 0-67.883L442.618 512.5 159.42 229.304c-18.745-18.745-18.745-49.137 0-67.883 18.746-18.745 49.138-18.745 67.883 0L510.5 444.618 793.696 161.42c18.745-18.745 49.137-18.745 67.883 0 18.745 18.746 18.745 49.138 0 67.883L578.382 512.5z" p-id="2000"></path></svg>